<svg width="68" height="29" viewBox="0 0 68 29" fill="none" xmlns="http://www.w3.org/2000/svg">
<path d="M0 -0.00585938H58C63.5228 -0.00585938 68 4.47129 68 9.99414V18.9941C68 24.517 63.5228 28.9941 58 28.9941H10C4.47715 28.9941 0 24.517 0 18.9941V-0.00585938Z" fill="#4B5654"/>
<path d="M11.8728 13.2741H13.6328C14.9661 13.2741 16.0928 13.6741 17.0128 14.4741C17.9328 15.2608 18.3928 16.3541 18.3928 17.7541C18.3928 19.1541 17.9195 20.2541 16.9728 21.0541C16.0395 21.8541 14.8795 22.2541 13.4928 22.2541C12.3595 22.2541 11.3728 21.9941 10.5328 21.4741C9.69281 20.9541 9.09281 20.2141 8.73281 19.2541L10.7128 18.1141C11.0995 19.3808 12.0261 20.0141 13.4928 20.0141C14.2795 20.0141 14.9061 19.8141 15.3728 19.4141C15.8528 19.0008 16.0928 18.4475 16.0928 17.7541C16.0928 17.0741 15.8595 16.5341 15.3928 16.1341C14.9261 15.7208 14.3061 15.5141 13.5328 15.5141H9.45281L9.99281 7.99414H17.7928V10.1541H12.1128L11.8728 13.2741ZM29.0588 20.2741C28.0988 21.5941 26.7521 22.2541 25.0188 22.2541C23.2988 22.2541 21.9454 21.5941 20.9588 20.2741C19.9988 18.9541 19.5188 17.1941 19.5188 14.9941C19.5188 12.7941 19.9988 11.0341 20.9588 9.71414C21.9454 8.39414 23.2988 7.73414 25.0188 7.73414C26.7521 7.73414 28.0988 8.39414 29.0588 9.71414C30.0321 11.0208 30.5188 12.7808 30.5188 14.9941C30.5188 17.2075 30.0321 18.9675 29.0588 20.2741ZM25.0188 20.0141C26.0588 20.0141 26.8521 19.5808 27.3988 18.7141C27.9454 17.8475 28.2188 16.6075 28.2188 14.9941C28.2188 13.3808 27.9454 12.1408 27.3988 11.2741C26.8521 10.4075 26.0588 9.97414 25.0188 9.97414C23.9921 9.97414 23.1988 10.4075 22.6388 11.2741C22.0921 12.1408 21.8188 13.3808 21.8188 14.9941C21.8188 16.6075 22.0921 17.8475 22.6388 18.7141C23.1988 19.5808 23.9921 20.0141 25.0188 20.0141ZM41.6564 20.2741C40.6964 21.5941 39.3497 22.2541 37.6164 22.2541C35.8964 22.2541 34.5431 21.5941 33.5564 20.2741C32.5964 18.9541 32.1164 17.1941 32.1164 14.9941C32.1164 12.7941 32.5964 11.0341 33.5564 9.71414C34.5431 8.39414 35.8964 7.73414 37.6164 7.73414C39.3497 7.73414 40.6964 8.39414 41.6564 9.71414C42.6297 11.0208 43.1164 12.7808 43.1164 14.9941C43.1164 17.2075 42.6297 18.9675 41.6564 20.2741ZM37.6164 20.0141C38.6564 20.0141 39.4497 19.5808 39.9964 18.7141C40.5431 17.8475 40.8164 16.6075 40.8164 14.9941C40.8164 13.3808 40.5431 12.1408 39.9964 11.2741C39.4497 10.4075 38.6564 9.97414 37.6164 9.97414C36.5897 9.97414 35.7964 10.4075 35.2364 11.2741C34.6897 12.1408 34.4164 13.3808 34.4164 14.9941C34.4164 16.6075 34.6897 17.8475 35.2364 18.7141C35.7964 19.5808 36.5897 20.0141 37.6164 20.0141ZM55.9741 16.8941H53.1141V18.2341H57.8141V19.7941H53.1141V21.9941H50.8141V19.7941H49.2141V18.2341H50.8141V16.8941H49.2141V14.8341H50.8141V7.99414H55.9741C57.2407 7.99414 58.3141 8.43414 59.1941 9.31414C60.0741 10.1675 60.5141 11.2275 60.5141 12.4941C60.5141 13.7341 60.0741 14.7808 59.1941 15.6341C58.3141 16.4741 57.2407 16.8941 55.9741 16.8941ZM55.9741 10.1541H53.1141V14.8341H55.9741C56.6141 14.8341 57.1407 14.6075 57.5541 14.1541C57.9941 13.7008 58.2141 13.1475 58.2141 12.4941C58.2141 11.8408 57.9941 11.2875 57.5541 10.8341C57.1407 10.3808 56.6141 10.1541 55.9741 10.1541Z" fill="white"/>
</svg>
