<svg width="60" height="60" viewBox="0 0 60 60" fill="none" xmlns="http://www.w3.org/2000/svg">
<rect width="60" height="60" rx="10" fill="white"/>
<path fill-rule="evenodd" clip-rule="evenodd" d="M13.5546 33.4273H11.5239C8.35614 33.4273 10.6575 26.6992 13.3244 26.6992H16.5328C17.0472 26.6992 17.9543 26.7939 18.401 25.5214L19.0914 23.5449H14.6917C12.3091 23.5449 10.4545 24.3843 9.11425 25.7922C6.79933 28.2018 6.01415 31.9653 6.56919 33.7658C7.09715 35.4309 8.53213 36.5274 10.7794 36.5545L12.5257 36.568H14.6782L15.2061 34.9842C15.5987 33.8605 14.7188 33.4273 13.5546 33.4273ZM38.2741 30.6386L38.9374 28.4861H31.8573C30.6796 28.4861 30.1516 28.811 29.9485 29.4879L29.2852 31.6404H36.3653C37.5431 31.6404 38.0711 31.3155 38.2741 30.6386ZM28.2293 34.4291L27.5659 36.5816H34.6461C35.8103 36.5816 36.3518 36.2567 36.5549 35.5798L37.2182 33.4273H30.1381C28.9738 33.4273 28.4459 33.7522 28.2293 34.4291ZM39.9257 25.7109L40.5892 23.5585H33.5089C32.3312 23.5585 31.8032 23.8834 31.6001 24.5602L30.9368 26.7127H38.0169C39.1813 26.7127 39.709 26.3878 39.9257 25.7109ZM29.2311 26.1441C28.9332 24.1406 27.8637 23.5585 25.2645 23.5585H20.5264L17.7648 31.6404H19.5111C20.5535 31.6404 21.0814 31.6539 21.6365 30.1648L22.7872 26.6992H24.547C26.0497 26.6992 25.7113 28.5809 24.9532 30.4085C24.2763 32.0194 23.0985 33.4409 21.6771 33.4409H18.7395C17.5617 33.4409 17.0202 33.7658 16.8036 34.4427L16.0725 36.5951H18.225L20.3369 36.5816C22.2051 36.568 23.7348 36.4327 25.5217 34.8217C27.417 33.1024 29.6101 28.6892 29.2311 26.1441ZM53.0302 23.5449H48.9283L45.07 27.6468C44.6232 28.1206 44.163 28.5944 43.7161 29.1495H43.6755L45.5978 23.5449H42.2543L37.7462 36.5816H41.09L42.5248 32.4797L44.0139 31.2207L45.1918 34.93C45.5572 36.0807 45.9365 36.5816 46.7488 36.5816H49.3073L46.6809 29.2984L53.0302 23.5449Z" fill="#00B33C"/>
</svg>
