<svg width="60" height="60" viewBox="0 0 60 60" fill="none" xmlns="http://www.w3.org/2000/svg">
<path d="M0 49.7262C0 55.249 4.47715 59.7262 10 59.7262H49.7347C55.2576 59.7262 59.7347 55.249 59.7347 49.7262V10C59.7347 4.47715 55.2576 0 49.7347 0H10C4.47715 0 0 4.47715 0 10V49.7262Z" fill="#0055A5"/>
<path d="M5.4707 32.7305V45.1831H7.52377V41.5676C7.9251 41.9161 8.36714 42.1253 8.8406 42.1253C9.519 42.1253 10.0767 41.7683 10.5145 41.0542C11.0058 40.2594 11.2507 39.0861 11.2507 37.5507C11.2507 36.4796 11.0543 35.5155 10.6709 34.6943L10.6037 34.56L10.5366 34.4486L10.4916 34.3372L10.4245 34.248L10.3574 34.1366L10.2681 34.0251L10.201 33.9359L10.1339 33.8466L10.0446 33.7574L9.97746 33.6681L9.8882 33.5788L9.79893 33.5117L9.70967 33.4224L9.62041 33.3553L9.53114 33.2882L9.44188 33.221L9.33048 33.1768L9.24121 33.1097L9.15195 33.0654L9.04055 33.0211L8.92915 32.9761L8.81774 32.9311L8.70634 32.8869L8.59494 32.8647L8.48354 32.8426L8.37214 32.8204L8.2386 32.7761H8.1272L7.99366 32.754H7.88226L7.74801 32.7319H7.61447H5.4707V32.7305ZM7.41237 34.4936H7.61304C8.13077 34.4936 8.53281 34.7928 8.81774 35.3641C9.10339 35.9354 9.24193 36.8187 9.24193 38.042C9.24193 38.7026 9.16123 39.2246 8.97414 39.5817C8.79561 39.9387 8.56352 40.1172 8.30501 40.1172C8.05507 40.1172 7.84941 39.948 7.68017 39.6259C7.51092 39.3139 7.41237 38.8633 7.41237 38.2648V34.4936Z" fill="white"/>
<path d="M53.7743 32.126L53.6051 32.2952C53.6051 32.2952 49.3119 36.7763 48.9905 37.1155V32.7237H46.9824V45.2028H48.9905V40.0791C49.0441 40.0169 51.6234 37.2847 51.9184 36.9726C51.9362 37.4275 52.2126 45.2028 52.2126 45.2028H54.2656L53.7743 32.126Z" fill="white"/>
<path d="M43.9796 32.2959L43.9703 32.3138L43.9525 32.3224L43.9346 32.3495L43.9075 32.3759L43.8718 32.4116L43.8361 32.4473L43.7911 32.4923L43.7468 32.5373L43.6933 32.5909L43.6397 32.6537L43.5769 32.7158L43.5147 32.778L43.4519 32.8494L43.3805 32.9208L43.3005 33.0007L43.1398 33.1707L42.9706 33.3493L42.792 33.5371L42.6049 33.7334L42.4086 33.9384L42.2029 34.1434L41.998 34.3576L41.7923 34.5811L41.3731 35.0181L41.1682 35.2323L40.9632 35.438L40.7668 35.643L40.5797 35.8486L40.3926 36.0365L40.2227 36.215L40.062 36.3842L39.982 36.4642L39.9106 36.5449L39.8392 36.6163L39.7764 36.6877L39.7142 36.7506L39.6607 36.8134L39.6071 36.8669L39.5535 36.9205L39.5093 36.9655L39.4736 37.0012L39.4379 37.0369L39.4107 37.0726L39.3836 37.0905L39.3657 37.1176V32.7258H37.3477V45.2049H39.365V40.0812C39.4186 40.0191 41.9987 37.2868 42.2929 36.9748C42.3107 37.4297 42.5878 45.2049 42.5878 45.2049H44.6316L44.1403 32.126L43.9796 32.2959Z" fill="white"/>
<path d="M32.3028 42.1052L32.1778 41.9538L32.0707 41.8024L31.9636 41.6324L31.8743 41.4632L31.785 41.2846L31.7043 41.1061L31.6236 40.919L31.5615 40.7312L31.5079 40.5263L31.4544 40.3299L31.4094 40.1157L31.3737 39.9014L31.3466 39.6779L31.3287 39.4544L31.3194 39.2223L31.3101 38.9902C31.3101 37.6784 31.6315 36.6336 32.2563 35.866C32.944 35.0269 33.9438 34.6077 35.247 34.6077H35.3449V32.4297H35.247C33.2118 32.4297 31.6493 33.0545 30.5875 34.3128C29.6234 35.4468 29.1328 37.0264 29.1328 39.0081C29.1328 40.9183 29.6684 42.4979 30.7124 43.6855C31.8193 44.9352 33.3461 45.5779 35.2742 45.5779H35.372V43.3913H35.2742C34.0081 43.3906 33.0083 42.9621 32.3028 42.1052Z" fill="white"/>
<path d="M16.159 32.4197C15.0793 32.4197 14.2174 33.031 13.5925 34.2271C12.9855 35.4054 12.6777 36.9722 12.6777 38.891C12.6777 40.8726 12.9677 42.4751 13.5482 43.6441C14.1374 44.8402 15.0165 45.4515 16.159 45.4515C17.3287 45.4515 18.2521 44.8045 18.9041 43.5548C19.5111 42.3851 19.8189 40.8055 19.8189 38.8681C19.8189 36.9578 19.5061 35.3954 18.8812 34.2264L18.8141 34.115L18.747 34.0036L18.702 33.8922L18.6127 33.8029L18.5677 33.7137L18.4785 33.6244L18.4113 33.5351L18.3442 33.4459L18.2771 33.3566L18.1878 33.2673L18.1207 33.2002L18.0314 33.1331L17.9643 33.0659L17.875 32.9988L17.8079 32.9317L17.7186 32.8646L17.6294 32.8196L17.5401 32.7753L17.4509 32.731L17.3616 32.6867L17.2723 32.6418L17.1831 32.5968L17.0938 32.5746L16.9824 32.5297L16.8931 32.5075L16.7817 32.4854L16.6925 32.4632H16.6032L16.4918 32.4411L16.3804 32.4189H16.269H16.159V32.4197ZM16.159 34.4278C16.7303 34.4278 17.1502 34.8341 17.4087 35.6553C17.6587 36.3959 17.7658 37.4763 17.7658 38.8688C17.7658 40.2164 17.6408 41.3368 17.3644 42.1937L17.3195 42.283L17.2973 42.3501L17.2752 42.4172L17.253 42.4844L17.2309 42.5515L17.1866 42.6186L17.1645 42.6857L17.1195 42.7307L17.0974 42.7979L17.0524 42.8429L17.0302 42.91L17.0081 42.955L16.9638 42.9993L16.9188 43.0435L16.8967 43.0878L16.8524 43.1099L16.8303 43.1542L16.7853 43.1985L16.741 43.2206L16.696 43.2649L16.6511 43.287L16.6061 43.3091L16.5839 43.3313L16.5389 43.3534H16.4939L16.449 43.3756L16.4047 43.3977H16.3597L16.3147 43.4199H16.2697H16.2247H16.1576C15.667 43.4199 15.2964 43.0007 15.0193 42.1702C14.7337 41.3039 14.5951 40.1928 14.5951 38.8895C14.5951 37.5599 14.7337 36.4615 15.0193 35.6318C15.28 34.8384 15.6592 34.4278 16.159 34.4278Z" fill="white"/>
<path d="M24.5674 42.1052L24.5139 42.0338L24.451 41.9538L24.3346 41.8024L24.2368 41.6324L24.1383 41.4632L24.049 41.2846L23.969 41.1061L23.8976 40.919L23.8262 40.7312L23.7726 40.5263L23.7191 40.3299L23.6834 40.1157L23.6477 39.9014L23.6212 39.6779L23.6034 39.4544L23.5855 39.2223V38.9902C23.5855 37.6784 23.8976 36.6336 24.5317 35.866C25.2101 35.0269 26.2099 34.6077 27.5131 34.6077H27.6203V32.4297H27.5131C25.4865 32.4297 23.9154 33.0545 22.8628 34.3128C21.8895 35.4468 21.4082 37.0264 21.4082 39.0081C21.4082 40.9183 21.9345 42.4979 22.9878 43.6855C24.0854 44.9352 25.6207 45.5779 27.5496 45.5779H27.6474V43.3913H27.5496C26.272 43.3906 25.2723 42.9621 24.5674 42.1052Z" fill="white"/>
<path d="M5.48828 14.4258V26.967H7.80058V16.5053H10.657V26.967H12.96V14.4258H5.48828Z" fill="white"/>
<path d="M20.0409 14.0974C18.8176 14.0974 17.8357 14.713 17.1402 15.9277C16.4525 17.1152 16.1133 18.6863 16.1133 20.6137C16.1133 22.6039 16.4346 24.2335 17.0952 25.4118C17.7643 26.6172 18.7555 27.2192 20.0409 27.2192C21.3527 27.2192 22.3882 26.5901 23.1201 25.3225C23.8078 24.1443 24.1692 22.5511 24.1692 20.6137C24.1692 18.6856 23.7943 17.1053 23.098 15.9277L23.0309 15.8163L22.9638 15.7049L22.8966 15.5935L22.8074 15.5042L22.7402 15.3928L22.651 15.3035L22.5838 15.2143L22.4946 15.125L22.4053 15.0357L22.3382 14.9686L22.2489 14.8794L22.1597 14.8122L22.0704 14.7451L21.9811 14.678L21.8697 14.6109L21.7805 14.5658L21.6912 14.4987L21.6019 14.4537L21.4905 14.4088L21.4013 14.3645L21.2899 14.3195L21.1785 14.2745L21.0892 14.2524L20.9778 14.2074L20.8664 14.1852L20.755 14.1631L20.6436 14.141L20.5322 14.1188H20.398H20.2866L20.1751 14.0967H20.0409V14.0974ZM20.0637 16.2176C20.6886 16.2176 21.1306 16.6197 21.4248 17.423C21.6926 18.155 21.8262 19.2219 21.8262 20.6144C21.8262 21.9441 21.6698 23.0559 21.3577 23.895C21.0542 24.7162 20.635 25.0997 20.0637 25.0997H19.9966H19.9516H19.9066H19.8624L19.8174 25.0776L19.7724 25.0554H19.7274L19.6824 25.0333L19.6381 25.0112L19.5931 24.989L19.5482 24.9669L19.5032 24.9448L19.4582 24.8998L19.4139 24.8776L19.3689 24.8334L19.3239 24.8112L19.3018 24.7663L19.2568 24.722L19.2118 24.677L19.1897 24.632L19.1447 24.587L19.0997 24.5199L19.0776 24.4749L19.0326 24.4299L19.0104 24.3628L18.9662 24.2956L18.944 24.2506L18.9219 24.1614L18.8769 24.0942L18.8548 24.0271L18.8326 23.96L18.7876 23.8929C18.4756 23.0267 18.3192 21.9291 18.3192 20.6344C18.3192 19.3047 18.4756 18.22 18.7876 17.3987C19.0861 16.6061 19.501 16.2176 20.0637 16.2176Z" fill="white"/>
<path d="M36.7404 14.4258V16.5053H38.6592V26.967H40.9715V16.5053H42.9175V14.4258H36.7404Z" fill="white"/>
<path d="M31.6782 18.7902H30.4199C29.9022 18.7902 29.5094 18.6745 29.2681 18.4424C29.0895 18.2817 29.0088 18.0582 29.0088 17.7726V14.4248H26.6973V18.0046C26.6973 18.8259 27.0272 19.5307 27.6699 20.0842C28.3033 20.629 29.0895 20.9054 29.9907 20.9054H31.6775V26.966H33.9898V14.4248H31.6775L31.6782 18.7902Z" fill="white"/>
<path d="M45.9281 14.4321L45.5039 26.974H47.8026C47.8026 26.974 48.0169 21.114 48.0254 20.837H50.904C50.9312 21.0962 51.5731 26.974 51.5731 26.974H53.894L52.8228 17.802V17.6906V17.5792V17.4678L52.8007 17.3564V17.245L52.7786 17.1557V17.0443L52.7564 16.955L52.7343 16.8436L52.7122 16.7544L52.69 16.6651L52.6679 16.5758L52.6457 16.4866L52.6007 16.3973L52.5786 16.308L52.5565 16.2188L52.5115 16.1295L52.4665 16.0624L52.4215 15.9731L52.3994 15.906L52.3544 15.8167L52.3094 15.7496L52.2423 15.6825L52.1973 15.5932L52.1523 15.5483L52.0852 15.459L52.0402 15.414L51.973 15.3469L51.9059 15.2797L51.8388 15.2347L51.7938 15.1676L51.7045 15.1005C51.1247 14.6449 50.3384 14.4307 49.3394 14.4307H45.9281V14.4321ZM48.1376 16.5073H48.9631C49.5608 16.5073 49.9628 16.6994 50.2128 17.065C50.4184 17.3685 50.5562 17.9484 50.6369 18.761H48.0704V18.7389V18.7168V18.6946V18.6725V18.6503V18.6282V18.6061V18.5389V18.4718V18.4047L48.0926 18.3376V18.2483V18.1812V18.0919V18.0027V17.9134V17.8241V17.6235V17.4449L48.1147 17.3557V17.2664V17.1771V17.0879V16.9986V16.9315V16.8422V16.7751V16.7079L48.1368 16.663V16.6408V16.6187V16.5966V16.5744V16.5523V16.5302V16.5073H48.1376Z" fill="white"/>
</svg>
