<svg width="60" height="60" viewBox="0 0 60 60" fill="none" xmlns="http://www.w3.org/2000/svg">
<rect width="60" height="60" rx="10" fill="#3A3A3A"/>
<path d="M15.3776 38.7567L31.0994 41.7397L32.3209 39.6564L18.3459 33.6894L15.3776 38.7567ZM22.6609 26.3233L34.89 35.277L36.1114 33.1927L25.6302 21.2551L22.6619 26.3233H22.6609ZM19.0079 32.563L32.9828 38.5318L34.228 36.4025L21.999 27.4498L19.0079 32.563ZM29.6266 14.4307L26.3263 20.0724L36.8085 32.0119L38.3619 29.3654L29.6266 14.4307ZM11.3926 45.5699H28.8613L30.4137 42.9233L14.6929 39.9403L11.3926 45.5699ZM39.1139 38.5993L43.2013 45.5699H47.8483L39.1139 30.6483L30.3796 45.5699H35.0265L39.1139 38.5993Z" fill="#FCAF17"/>
</svg>
