<svg width="60" height="60" viewBox="0 0 60 60" fill="none" xmlns="http://www.w3.org/2000/svg">
<rect width="60" height="60" rx="10" fill="white"/>
<mask id="path-2-outside-1_43_7667" maskUnits="userSpaceOnUse" x="7.35352" y="8.11328" width="45" height="44" fill="black">
<rect fill="white" x="7.35352" y="8.11328" width="45" height="44"/>
<path fill-rule="evenodd" clip-rule="evenodd" d="M19.3953 9.23285C16.7887 9.75472 15.0601 11.2795 14.4274 13.6149C14.2157 14.3963 14.2183 16.2606 14.4325 17.2446L14.5899 17.9673L14.373 18.2859C14.034 18.784 13.9371 19.2023 13.98 19.9821C14.0575 21.3909 14.6719 22.1139 15.9776 22.3329C16.2542 22.3792 16.3231 22.4539 16.6785 23.0915C17.183 23.9967 17.7747 24.7691 18.3365 25.2556L18.7803 25.6401L18.3648 26.7106L17.9494 27.781L14.0059 30.1558C11.8369 31.4619 9.8779 32.6663 9.65233 32.8322C8.88168 33.3991 8.35352 34.4556 8.35352 35.4302C8.35352 36.0112 10.0597 45.3264 10.2348 45.7011C10.3955 46.0452 10.8402 46.3289 11.2193 46.3293C11.3779 46.3295 11.7894 46.1788 12.1656 45.9826C12.5316 45.7916 12.8729 45.6354 12.9238 45.6354C12.9748 45.6354 14.3038 46.6536 15.8773 47.898C18.0587 49.6233 18.9134 50.2466 19.4764 50.523L20.2146 50.8854H21.492H22.7692L24.4342 50.3909C27.2723 49.5479 29.7296 48.9932 31.8393 48.719C32.3936 48.6469 34.523 48.4716 36.5715 48.3293C41.6342 47.9776 41.3654 48.0234 41.8993 47.4211C42.3397 46.9246 42.4488 46.3534 42.2238 45.7222C42.1515 45.5193 42.0924 45.3387 42.0924 45.3208C42.0924 45.3029 44.0385 45.2883 46.4173 45.2883H50.7422L51.0399 45.0914C51.6823 44.6665 51.6442 45.2307 51.6442 36.1452L51.6444 28L51.453 27.6628C51.3311 27.4479 51.1303 27.2627 50.8995 27.152C50.5445 26.9819 50.3585 26.9785 41.3037 26.9785C32.224 26.9785 32.064 26.9814 31.7136 27.1533C31.1006 27.454 31.011 27.6573 30.9775 28.8217L30.9483 29.8406L30.3975 29.4514C29.977 29.1542 29.4845 28.9374 28.3137 28.534L26.7806 28.0057L26.2418 26.8196C25.9454 26.1672 25.7034 25.6099 25.7039 25.5812C25.7045 25.5525 25.9749 25.2529 26.305 24.9156C27.5241 23.6695 28.0401 22.1903 28.2081 19.46L28.2676 18.4931L29.1114 18.3914C30.226 18.257 31.8106 17.9055 32.0748 17.7341C32.4158 17.5128 32.6273 17.0881 32.6276 16.6237C32.6279 16.2821 32.5835 16.161 32.387 15.967C31.6448 15.2346 30.0197 14.6766 27.732 14.3686C27.6615 14.3592 27.4423 13.8659 27.2006 13.1728C26.721 11.7975 26.4726 11.3445 25.8869 10.7758C25.1087 10.0203 24.0693 9.5193 22.6987 9.23892C21.8924 9.07396 20.2043 9.07093 19.3953 9.23285ZM22.9742 10.5726C23.8441 10.8209 24.4169 11.1215 24.9361 11.6025C25.4459 12.0746 25.5826 12.3195 26.0009 13.5095L26.3125 14.3959L26.0306 14.3964C25.5143 14.3974 24.0935 14.6445 23.295 14.8723C21.6677 15.3365 19.9841 16.3517 19.3615 17.2442L19.1086 17.6066H17.4613C15.9682 17.6066 15.81 17.5924 15.769 17.4548C15.5152 16.6017 15.4437 14.9416 15.6241 14.0922C16.0279 12.191 17.4401 10.9137 19.6582 10.4434C20.4736 10.2705 22.1439 10.3356 22.9742 10.5726ZM29.3173 15.9037C30.1462 16.1143 31.3742 16.6208 31.2806 16.7135C31.1883 16.805 29.6569 17.0778 28.5037 17.2082C26.8442 17.396 25.111 17.5045 22.7254 17.5698L20.666 17.6263L20.9727 17.3582C21.4047 16.9807 22.9076 16.2569 23.698 16.0457C25.5478 15.5514 27.7148 15.4966 29.3173 15.9037ZM26.9313 19.3638C26.9303 20.7447 26.6317 22.1247 26.1187 23.1188C25.0789 25.134 22.3258 25.9764 20.1402 24.9482C19.8028 24.7895 19.3401 24.4952 19.112 24.2943C18.6461 23.8841 17.9077 22.8235 17.4337 21.8837C17.2601 21.5396 17.0416 21.2174 16.948 21.1678C16.8544 21.1183 16.5553 21.0777 16.2834 21.0777C15.857 21.0777 15.7546 21.0437 15.5402 20.8315C15.1733 20.4682 15.0649 19.3955 15.3595 19.044C15.429 18.9611 16.415 18.9188 19.4606 18.8679C21.6659 18.8311 23.9829 18.7728 24.6095 18.7384C25.2361 18.704 26.0149 18.6695 26.3403 18.6619L26.9318 18.6479L26.9313 19.3638ZM25.1055 27.3264C25.3808 27.9225 25.609 28.4689 25.6126 28.5405C25.6219 28.7243 24.1859 34.2683 24.1298 34.2649C24.1045 34.2634 23.7682 33.7098 23.3826 33.0349C22.6812 31.807 22.2191 31.251 19.4197 28.267L19.2038 28.037L19.5348 27.1535C19.8262 26.3756 19.8873 26.2752 20.0468 26.3126C21.344 26.6164 21.5871 26.6462 22.4187 26.6035C22.9433 26.5765 23.506 26.4892 23.8208 26.3857C24.11 26.2907 24.4048 26.2195 24.4759 26.2277C24.5502 26.2361 24.8177 26.7029 25.1055 27.3264ZM37.6231 29.4082V30.5363H34.9064H32.1898V29.4082V28.2801H34.9064H37.6231V29.4082ZM43.7574 30.6716C43.7574 32.5617 43.7345 33.0495 43.6479 32.998C43.5877 32.9622 43.0848 32.6414 42.5306 32.2853C41.9588 31.918 41.4279 31.6379 41.3037 31.638C41.1796 31.638 40.6477 31.9195 40.0768 32.287C39.5225 32.644 39.0198 32.9646 38.9595 32.9996C38.873 33.0497 38.8499 32.5608 38.8499 30.6716V28.2801H41.3037H43.7574V30.6716ZM50.4176 29.4082V30.5363H47.7009H44.9843V29.4082V28.2801H47.7009H50.4176V29.4082ZM19.6528 30.3617L20.8869 31.7057L19.6949 32.2971C19.0394 32.6223 18.4672 32.8766 18.4235 32.8622C18.3797 32.8477 17.9085 32.232 17.3763 31.4939L16.4085 30.1519L16.7408 29.9567C16.9235 29.8492 17.3491 29.5881 17.6865 29.3765C18.0239 29.1648 18.3266 28.9975 18.3592 29.0046C18.3919 29.0118 18.974 29.6226 19.6528 30.3617ZM27.5845 29.59C27.9966 29.7377 28.3339 29.8878 28.3339 29.9236C28.3339 30.0245 27.8106 32.5587 27.7845 32.5846C27.7641 32.6046 27.3406 32.2903 26.4578 31.6001L26.209 31.4056L26.3546 30.8191C26.5707 29.9493 26.7566 29.3215 26.7982 29.3215C26.8185 29.3215 27.1723 29.4423 27.5845 29.59ZM30.3133 30.8943L30.9629 31.339V36.9582V42.5774L26.4667 43.4594C23.9359 43.9557 21.9011 44.3148 21.8116 44.2808C21.7242 44.2476 21.1498 43.6186 20.5353 42.883L19.4179 41.5456L18.4722 39.3168C17.2441 36.4226 17.1713 36.2804 16.8812 36.2083C16.5838 36.1344 16.2247 36.327 16.1222 36.6155C16.059 36.7932 16.2269 37.2565 17.0642 39.2157C17.6245 40.5268 18.053 41.6111 18.0162 41.6252C17.9794 41.6393 16.4706 42.4063 14.6631 43.3297C11.9052 44.7387 11.3666 44.9858 11.3133 44.8664C11.2784 44.7882 10.869 42.6547 10.4037 40.1251C9.63104 35.9245 9.56575 35.4871 9.65049 35.0778C9.76433 34.5279 10.1023 34.0053 10.5294 33.7191C10.7607 33.564 14.6789 31.1865 15.2856 30.8329C15.3147 30.816 15.9051 31.5833 16.5975 32.5381C17.4949 33.7754 17.9183 34.2893 18.0714 34.3274C18.2339 34.3678 18.7026 34.1751 19.9919 33.5377C20.9301 33.074 21.7278 32.7264 21.7648 32.7653C21.8017 32.8041 22.2729 33.5974 22.812 34.528C23.8787 36.3699 24.0573 36.6107 24.357 36.6107C24.8058 36.6107 24.9566 36.315 25.3969 34.5714C25.6259 33.6646 25.8433 32.8902 25.8801 32.8506C25.9169 32.8108 26.41 33.133 26.976 33.5665C28.5788 34.794 28.6395 34.7572 29.1501 32.249C29.3514 31.2593 29.5494 30.4496 29.59 30.4496C29.6305 30.4496 29.9559 30.6497 30.3133 30.8943ZM37.6231 33.0866C37.6231 34.2551 37.6432 34.4467 37.7847 34.6197C38.0837 34.9854 38.3581 34.8907 39.8887 33.8936L41.3067 32.9699L42.7145 33.8936C44.2393 34.8941 44.5194 34.9906 44.8227 34.6197C44.9641 34.4467 44.9843 34.2551 44.9843 33.0866V31.7512H47.7009H50.4176V37.9123V44.0735H44.2175H38.0174V43.3439C38.0174 42.6608 38.0003 42.5931 37.7494 42.2809C37.4414 41.8976 36.8291 41.5569 36.4483 41.5569C36.2409 41.5569 33.2882 42.0951 32.387 42.2971L32.1898 42.3412V37.0462V31.7512H34.9064H37.6231V33.0866ZM43.144 38.6933C42.9202 38.915 42.9122 39.3967 43.129 39.591C43.2704 39.7177 43.5896 39.7346 45.8422 39.7346C48.3556 39.7346 48.398 39.7317 48.5738 39.5447C48.8127 39.2909 48.7993 38.9921 48.5374 38.7328L48.3223 38.5198H45.8207C43.4361 38.5198 43.3111 38.5278 43.144 38.6933ZM41.5066 41.1237C41.0956 41.2877 41.0126 41.7972 41.3436 42.1249L41.5586 42.3379H44.8431C46.7759 42.3379 48.2207 42.303 48.3535 42.2529C48.8352 42.0716 48.8668 41.4045 48.4051 41.168C48.1881 41.0569 47.6429 41.0372 44.9229 41.0418C43.1492 41.0448 41.6119 41.0817 41.5066 41.1237ZM19.4855 43.5745C20.9014 45.2739 21.2343 45.5423 21.9321 45.5468C22.0983 45.5478 23.1433 45.3709 24.2544 45.1536C25.3655 44.9363 28.5579 44.3109 31.3487 43.7639C36.068 42.8386 36.4371 42.7784 36.6286 42.9026C36.8714 43.0602 36.9073 43.4682 36.6967 43.6768C36.6209 43.7518 36.5361 43.8131 36.5082 43.8131C36.4803 43.8131 35.4282 44.0513 34.1702 44.3424C32.2375 44.7897 31.8525 44.9047 31.6859 45.0849C31.4288 45.3628 31.4361 45.643 31.7069 45.8949L31.9251 46.0979L36.3001 45.9464C39.5483 45.8339 40.7221 45.8199 40.858 45.8918C41.0763 46.0075 41.112 46.5102 40.9135 46.6733C40.8311 46.7411 39.3577 46.8806 36.7243 47.0699C32.439 47.3779 31.7372 47.4473 30.0985 47.7243C28.7577 47.9509 25.5588 48.7388 23.9084 49.2488C22.6778 49.6292 22.5297 49.6555 21.5862 49.6628C20.074 49.6745 20.2504 49.7729 16.5661 46.8606C15.2751 45.8402 14.2425 44.9817 14.2716 44.953C14.3362 44.8889 18.6317 42.6896 18.6974 42.687C18.7233 42.6859 19.0779 43.0853 19.4855 43.5745Z"/>
</mask>
<path fill-rule="evenodd" clip-rule="evenodd" d="M19.3953 9.23285C16.7887 9.75472 15.0601 11.2795 14.4274 13.6149C14.2157 14.3963 14.2183 16.2606 14.4325 17.2446L14.5899 17.9673L14.373 18.2859C14.034 18.784 13.9371 19.2023 13.98 19.9821C14.0575 21.3909 14.6719 22.1139 15.9776 22.3329C16.2542 22.3792 16.3231 22.4539 16.6785 23.0915C17.183 23.9967 17.7747 24.7691 18.3365 25.2556L18.7803 25.6401L18.3648 26.7106L17.9494 27.781L14.0059 30.1558C11.8369 31.4619 9.8779 32.6663 9.65233 32.8322C8.88168 33.3991 8.35352 34.4556 8.35352 35.4302C8.35352 36.0112 10.0597 45.3264 10.2348 45.7011C10.3955 46.0452 10.8402 46.3289 11.2193 46.3293C11.3779 46.3295 11.7894 46.1788 12.1656 45.9826C12.5316 45.7916 12.8729 45.6354 12.9238 45.6354C12.9748 45.6354 14.3038 46.6536 15.8773 47.898C18.0587 49.6233 18.9134 50.2466 19.4764 50.523L20.2146 50.8854H21.492H22.7692L24.4342 50.3909C27.2723 49.5479 29.7296 48.9932 31.8393 48.719C32.3936 48.6469 34.523 48.4716 36.5715 48.3293C41.6342 47.9776 41.3654 48.0234 41.8993 47.4211C42.3397 46.9246 42.4488 46.3534 42.2238 45.7222C42.1515 45.5193 42.0924 45.3387 42.0924 45.3208C42.0924 45.3029 44.0385 45.2883 46.4173 45.2883H50.7422L51.0399 45.0914C51.6823 44.6665 51.6442 45.2307 51.6442 36.1452L51.6444 28L51.453 27.6628C51.3311 27.4479 51.1303 27.2627 50.8995 27.152C50.5445 26.9819 50.3585 26.9785 41.3037 26.9785C32.224 26.9785 32.064 26.9814 31.7136 27.1533C31.1006 27.454 31.011 27.6573 30.9775 28.8217L30.9483 29.8406L30.3975 29.4514C29.977 29.1542 29.4845 28.9374 28.3137 28.534L26.7806 28.0057L26.2418 26.8196C25.9454 26.1672 25.7034 25.6099 25.7039 25.5812C25.7045 25.5525 25.9749 25.2529 26.305 24.9156C27.5241 23.6695 28.0401 22.1903 28.2081 19.46L28.2676 18.4931L29.1114 18.3914C30.226 18.257 31.8106 17.9055 32.0748 17.7341C32.4158 17.5128 32.6273 17.0881 32.6276 16.6237C32.6279 16.2821 32.5835 16.161 32.387 15.967C31.6448 15.2346 30.0197 14.6766 27.732 14.3686C27.6615 14.3592 27.4423 13.8659 27.2006 13.1728C26.721 11.7975 26.4726 11.3445 25.8869 10.7758C25.1087 10.0203 24.0693 9.5193 22.6987 9.23892C21.8924 9.07396 20.2043 9.07093 19.3953 9.23285ZM22.9742 10.5726C23.8441 10.8209 24.4169 11.1215 24.9361 11.6025C25.4459 12.0746 25.5826 12.3195 26.0009 13.5095L26.3125 14.3959L26.0306 14.3964C25.5143 14.3974 24.0935 14.6445 23.295 14.8723C21.6677 15.3365 19.9841 16.3517 19.3615 17.2442L19.1086 17.6066H17.4613C15.9682 17.6066 15.81 17.5924 15.769 17.4548C15.5152 16.6017 15.4437 14.9416 15.6241 14.0922C16.0279 12.191 17.4401 10.9137 19.6582 10.4434C20.4736 10.2705 22.1439 10.3356 22.9742 10.5726ZM29.3173 15.9037C30.1462 16.1143 31.3742 16.6208 31.2806 16.7135C31.1883 16.805 29.6569 17.0778 28.5037 17.2082C26.8442 17.396 25.111 17.5045 22.7254 17.5698L20.666 17.6263L20.9727 17.3582C21.4047 16.9807 22.9076 16.2569 23.698 16.0457C25.5478 15.5514 27.7148 15.4966 29.3173 15.9037ZM26.9313 19.3638C26.9303 20.7447 26.6317 22.1247 26.1187 23.1188C25.0789 25.134 22.3258 25.9764 20.1402 24.9482C19.8028 24.7895 19.3401 24.4952 19.112 24.2943C18.6461 23.8841 17.9077 22.8235 17.4337 21.8837C17.2601 21.5396 17.0416 21.2174 16.948 21.1678C16.8544 21.1183 16.5553 21.0777 16.2834 21.0777C15.857 21.0777 15.7546 21.0437 15.5402 20.8315C15.1733 20.4682 15.0649 19.3955 15.3595 19.044C15.429 18.9611 16.415 18.9188 19.4606 18.8679C21.6659 18.8311 23.9829 18.7728 24.6095 18.7384C25.2361 18.704 26.0149 18.6695 26.3403 18.6619L26.9318 18.6479L26.9313 19.3638ZM25.1055 27.3264C25.3808 27.9225 25.609 28.4689 25.6126 28.5405C25.6219 28.7243 24.1859 34.2683 24.1298 34.2649C24.1045 34.2634 23.7682 33.7098 23.3826 33.0349C22.6812 31.807 22.2191 31.251 19.4197 28.267L19.2038 28.037L19.5348 27.1535C19.8262 26.3756 19.8873 26.2752 20.0468 26.3126C21.344 26.6164 21.5871 26.6462 22.4187 26.6035C22.9433 26.5765 23.506 26.4892 23.8208 26.3857C24.11 26.2907 24.4048 26.2195 24.4759 26.2277C24.5502 26.2361 24.8177 26.7029 25.1055 27.3264ZM37.6231 29.4082V30.5363H34.9064H32.1898V29.4082V28.2801H34.9064H37.6231V29.4082ZM43.7574 30.6716C43.7574 32.5617 43.7345 33.0495 43.6479 32.998C43.5877 32.9622 43.0848 32.6414 42.5306 32.2853C41.9588 31.918 41.4279 31.6379 41.3037 31.638C41.1796 31.638 40.6477 31.9195 40.0768 32.287C39.5225 32.644 39.0198 32.9646 38.9595 32.9996C38.873 33.0497 38.8499 32.5608 38.8499 30.6716V28.2801H41.3037H43.7574V30.6716ZM50.4176 29.4082V30.5363H47.7009H44.9843V29.4082V28.2801H47.7009H50.4176V29.4082ZM19.6528 30.3617L20.8869 31.7057L19.6949 32.2971C19.0394 32.6223 18.4672 32.8766 18.4235 32.8622C18.3797 32.8477 17.9085 32.232 17.3763 31.4939L16.4085 30.1519L16.7408 29.9567C16.9235 29.8492 17.3491 29.5881 17.6865 29.3765C18.0239 29.1648 18.3266 28.9975 18.3592 29.0046C18.3919 29.0118 18.974 29.6226 19.6528 30.3617ZM27.5845 29.59C27.9966 29.7377 28.3339 29.8878 28.3339 29.9236C28.3339 30.0245 27.8106 32.5587 27.7845 32.5846C27.7641 32.6046 27.3406 32.2903 26.4578 31.6001L26.209 31.4056L26.3546 30.8191C26.5707 29.9493 26.7566 29.3215 26.7982 29.3215C26.8185 29.3215 27.1723 29.4423 27.5845 29.59ZM30.3133 30.8943L30.9629 31.339V36.9582V42.5774L26.4667 43.4594C23.9359 43.9557 21.9011 44.3148 21.8116 44.2808C21.7242 44.2476 21.1498 43.6186 20.5353 42.883L19.4179 41.5456L18.4722 39.3168C17.2441 36.4226 17.1713 36.2804 16.8812 36.2083C16.5838 36.1344 16.2247 36.327 16.1222 36.6155C16.059 36.7932 16.2269 37.2565 17.0642 39.2157C17.6245 40.5268 18.053 41.6111 18.0162 41.6252C17.9794 41.6393 16.4706 42.4063 14.6631 43.3297C11.9052 44.7387 11.3666 44.9858 11.3133 44.8664C11.2784 44.7882 10.869 42.6547 10.4037 40.1251C9.63104 35.9245 9.56575 35.4871 9.65049 35.0778C9.76433 34.5279 10.1023 34.0053 10.5294 33.7191C10.7607 33.564 14.6789 31.1865 15.2856 30.8329C15.3147 30.816 15.9051 31.5833 16.5975 32.5381C17.4949 33.7754 17.9183 34.2893 18.0714 34.3274C18.2339 34.3678 18.7026 34.1751 19.9919 33.5377C20.9301 33.074 21.7278 32.7264 21.7648 32.7653C21.8017 32.8041 22.2729 33.5974 22.812 34.528C23.8787 36.3699 24.0573 36.6107 24.357 36.6107C24.8058 36.6107 24.9566 36.315 25.3969 34.5714C25.6259 33.6646 25.8433 32.8902 25.8801 32.8506C25.9169 32.8108 26.41 33.133 26.976 33.5665C28.5788 34.794 28.6395 34.7572 29.1501 32.249C29.3514 31.2593 29.5494 30.4496 29.59 30.4496C29.6305 30.4496 29.9559 30.6497 30.3133 30.8943ZM37.6231 33.0866C37.6231 34.2551 37.6432 34.4467 37.7847 34.6197C38.0837 34.9854 38.3581 34.8907 39.8887 33.8936L41.3067 32.9699L42.7145 33.8936C44.2393 34.8941 44.5194 34.9906 44.8227 34.6197C44.9641 34.4467 44.9843 34.2551 44.9843 33.0866V31.7512H47.7009H50.4176V37.9123V44.0735H44.2175H38.0174V43.3439C38.0174 42.6608 38.0003 42.5931 37.7494 42.2809C37.4414 41.8976 36.8291 41.5569 36.4483 41.5569C36.2409 41.5569 33.2882 42.0951 32.387 42.2971L32.1898 42.3412V37.0462V31.7512H34.9064H37.6231V33.0866ZM43.144 38.6933C42.9202 38.915 42.9122 39.3967 43.129 39.591C43.2704 39.7177 43.5896 39.7346 45.8422 39.7346C48.3556 39.7346 48.398 39.7317 48.5738 39.5447C48.8127 39.2909 48.7993 38.9921 48.5374 38.7328L48.3223 38.5198H45.8207C43.4361 38.5198 43.3111 38.5278 43.144 38.6933ZM41.5066 41.1237C41.0956 41.2877 41.0126 41.7972 41.3436 42.1249L41.5586 42.3379H44.8431C46.7759 42.3379 48.2207 42.303 48.3535 42.2529C48.8352 42.0716 48.8668 41.4045 48.4051 41.168C48.1881 41.0569 47.6429 41.0372 44.9229 41.0418C43.1492 41.0448 41.6119 41.0817 41.5066 41.1237ZM19.4855 43.5745C20.9014 45.2739 21.2343 45.5423 21.9321 45.5468C22.0983 45.5478 23.1433 45.3709 24.2544 45.1536C25.3655 44.9363 28.5579 44.3109 31.3487 43.7639C36.068 42.8386 36.4371 42.7784 36.6286 42.9026C36.8714 43.0602 36.9073 43.4682 36.6967 43.6768C36.6209 43.7518 36.5361 43.8131 36.5082 43.8131C36.4803 43.8131 35.4282 44.0513 34.1702 44.3424C32.2375 44.7897 31.8525 44.9047 31.6859 45.0849C31.4288 45.3628 31.4361 45.643 31.7069 45.8949L31.9251 46.0979L36.3001 45.9464C39.5483 45.8339 40.7221 45.8199 40.858 45.8918C41.0763 46.0075 41.112 46.5102 40.9135 46.6733C40.8311 46.7411 39.3577 46.8806 36.7243 47.0699C32.439 47.3779 31.7372 47.4473 30.0985 47.7243C28.7577 47.9509 25.5588 48.7388 23.9084 49.2488C22.6778 49.6292 22.5297 49.6555 21.5862 49.6628C20.074 49.6745 20.2504 49.7729 16.5661 46.8606C15.2751 45.8402 14.2425 44.9817 14.2716 44.953C14.3362 44.8889 18.6317 42.6896 18.6974 42.687C18.7233 42.6859 19.0779 43.0853 19.4855 43.5745Z" fill="#0055A5"/>
<path fill-rule="evenodd" clip-rule="evenodd" d="M19.3953 9.23285C16.7887 9.75472 15.0601 11.2795 14.4274 13.6149C14.2157 14.3963 14.2183 16.2606 14.4325 17.2446L14.5899 17.9673L14.373 18.2859C14.034 18.784 13.9371 19.2023 13.98 19.9821C14.0575 21.3909 14.6719 22.1139 15.9776 22.3329C16.2542 22.3792 16.3231 22.4539 16.6785 23.0915C17.183 23.9967 17.7747 24.7691 18.3365 25.2556L18.7803 25.6401L18.3648 26.7106L17.9494 27.781L14.0059 30.1558C11.8369 31.4619 9.8779 32.6663 9.65233 32.8322C8.88168 33.3991 8.35352 34.4556 8.35352 35.4302C8.35352 36.0112 10.0597 45.3264 10.2348 45.7011C10.3955 46.0452 10.8402 46.3289 11.2193 46.3293C11.3779 46.3295 11.7894 46.1788 12.1656 45.9826C12.5316 45.7916 12.8729 45.6354 12.9238 45.6354C12.9748 45.6354 14.3038 46.6536 15.8773 47.898C18.0587 49.6233 18.9134 50.2466 19.4764 50.523L20.2146 50.8854H21.492H22.7692L24.4342 50.3909C27.2723 49.5479 29.7296 48.9932 31.8393 48.719C32.3936 48.6469 34.523 48.4716 36.5715 48.3293C41.6342 47.9776 41.3654 48.0234 41.8993 47.4211C42.3397 46.9246 42.4488 46.3534 42.2238 45.7222C42.1515 45.5193 42.0924 45.3387 42.0924 45.3208C42.0924 45.3029 44.0385 45.2883 46.4173 45.2883H50.7422L51.0399 45.0914C51.6823 44.6665 51.6442 45.2307 51.6442 36.1452L51.6444 28L51.453 27.6628C51.3311 27.4479 51.1303 27.2627 50.8995 27.152C50.5445 26.9819 50.3585 26.9785 41.3037 26.9785C32.224 26.9785 32.064 26.9814 31.7136 27.1533C31.1006 27.454 31.011 27.6573 30.9775 28.8217L30.9483 29.8406L30.3975 29.4514C29.977 29.1542 29.4845 28.9374 28.3137 28.534L26.7806 28.0057L26.2418 26.8196C25.9454 26.1672 25.7034 25.6099 25.7039 25.5812C25.7045 25.5525 25.9749 25.2529 26.305 24.9156C27.5241 23.6695 28.0401 22.1903 28.2081 19.46L28.2676 18.4931L29.1114 18.3914C30.226 18.257 31.8106 17.9055 32.0748 17.7341C32.4158 17.5128 32.6273 17.0881 32.6276 16.6237C32.6279 16.2821 32.5835 16.161 32.387 15.967C31.6448 15.2346 30.0197 14.6766 27.732 14.3686C27.6615 14.3592 27.4423 13.8659 27.2006 13.1728C26.721 11.7975 26.4726 11.3445 25.8869 10.7758C25.1087 10.0203 24.0693 9.5193 22.6987 9.23892C21.8924 9.07396 20.2043 9.07093 19.3953 9.23285ZM22.9742 10.5726C23.8441 10.8209 24.4169 11.1215 24.9361 11.6025C25.4459 12.0746 25.5826 12.3195 26.0009 13.5095L26.3125 14.3959L26.0306 14.3964C25.5143 14.3974 24.0935 14.6445 23.295 14.8723C21.6677 15.3365 19.9841 16.3517 19.3615 17.2442L19.1086 17.6066H17.4613C15.9682 17.6066 15.81 17.5924 15.769 17.4548C15.5152 16.6017 15.4437 14.9416 15.6241 14.0922C16.0279 12.191 17.4401 10.9137 19.6582 10.4434C20.4736 10.2705 22.1439 10.3356 22.9742 10.5726ZM29.3173 15.9037C30.1462 16.1143 31.3742 16.6208 31.2806 16.7135C31.1883 16.805 29.6569 17.0778 28.5037 17.2082C26.8442 17.396 25.111 17.5045 22.7254 17.5698L20.666 17.6263L20.9727 17.3582C21.4047 16.9807 22.9076 16.2569 23.698 16.0457C25.5478 15.5514 27.7148 15.4966 29.3173 15.9037ZM26.9313 19.3638C26.9303 20.7447 26.6317 22.1247 26.1187 23.1188C25.0789 25.134 22.3258 25.9764 20.1402 24.9482C19.8028 24.7895 19.3401 24.4952 19.112 24.2943C18.6461 23.8841 17.9077 22.8235 17.4337 21.8837C17.2601 21.5396 17.0416 21.2174 16.948 21.1678C16.8544 21.1183 16.5553 21.0777 16.2834 21.0777C15.857 21.0777 15.7546 21.0437 15.5402 20.8315C15.1733 20.4682 15.0649 19.3955 15.3595 19.044C15.429 18.9611 16.415 18.9188 19.4606 18.8679C21.6659 18.8311 23.9829 18.7728 24.6095 18.7384C25.2361 18.704 26.0149 18.6695 26.3403 18.6619L26.9318 18.6479L26.9313 19.3638ZM25.1055 27.3264C25.3808 27.9225 25.609 28.4689 25.6126 28.5405C25.6219 28.7243 24.1859 34.2683 24.1298 34.2649C24.1045 34.2634 23.7682 33.7098 23.3826 33.0349C22.6812 31.807 22.2191 31.251 19.4197 28.267L19.2038 28.037L19.5348 27.1535C19.8262 26.3756 19.8873 26.2752 20.0468 26.3126C21.344 26.6164 21.5871 26.6462 22.4187 26.6035C22.9433 26.5765 23.506 26.4892 23.8208 26.3857C24.11 26.2907 24.4048 26.2195 24.4759 26.2277C24.5502 26.2361 24.8177 26.7029 25.1055 27.3264ZM37.6231 29.4082V30.5363H34.9064H32.1898V29.4082V28.2801H34.9064H37.6231V29.4082ZM43.7574 30.6716C43.7574 32.5617 43.7345 33.0495 43.6479 32.998C43.5877 32.9622 43.0848 32.6414 42.5306 32.2853C41.9588 31.918 41.4279 31.6379 41.3037 31.638C41.1796 31.638 40.6477 31.9195 40.0768 32.287C39.5225 32.644 39.0198 32.9646 38.9595 32.9996C38.873 33.0497 38.8499 32.5608 38.8499 30.6716V28.2801H41.3037H43.7574V30.6716ZM50.4176 29.4082V30.5363H47.7009H44.9843V29.4082V28.2801H47.7009H50.4176V29.4082ZM19.6528 30.3617L20.8869 31.7057L19.6949 32.2971C19.0394 32.6223 18.4672 32.8766 18.4235 32.8622C18.3797 32.8477 17.9085 32.232 17.3763 31.4939L16.4085 30.1519L16.7408 29.9567C16.9235 29.8492 17.3491 29.5881 17.6865 29.3765C18.0239 29.1648 18.3266 28.9975 18.3592 29.0046C18.3919 29.0118 18.974 29.6226 19.6528 30.3617ZM27.5845 29.59C27.9966 29.7377 28.3339 29.8878 28.3339 29.9236C28.3339 30.0245 27.8106 32.5587 27.7845 32.5846C27.7641 32.6046 27.3406 32.2903 26.4578 31.6001L26.209 31.4056L26.3546 30.8191C26.5707 29.9493 26.7566 29.3215 26.7982 29.3215C26.8185 29.3215 27.1723 29.4423 27.5845 29.59ZM30.3133 30.8943L30.9629 31.339V36.9582V42.5774L26.4667 43.4594C23.9359 43.9557 21.9011 44.3148 21.8116 44.2808C21.7242 44.2476 21.1498 43.6186 20.5353 42.883L19.4179 41.5456L18.4722 39.3168C17.2441 36.4226 17.1713 36.2804 16.8812 36.2083C16.5838 36.1344 16.2247 36.327 16.1222 36.6155C16.059 36.7932 16.2269 37.2565 17.0642 39.2157C17.6245 40.5268 18.053 41.6111 18.0162 41.6252C17.9794 41.6393 16.4706 42.4063 14.6631 43.3297C11.9052 44.7387 11.3666 44.9858 11.3133 44.8664C11.2784 44.7882 10.869 42.6547 10.4037 40.1251C9.63104 35.9245 9.56575 35.4871 9.65049 35.0778C9.76433 34.5279 10.1023 34.0053 10.5294 33.7191C10.7607 33.564 14.6789 31.1865 15.2856 30.8329C15.3147 30.816 15.9051 31.5833 16.5975 32.5381C17.4949 33.7754 17.9183 34.2893 18.0714 34.3274C18.2339 34.3678 18.7026 34.1751 19.9919 33.5377C20.9301 33.074 21.7278 32.7264 21.7648 32.7653C21.8017 32.8041 22.2729 33.5974 22.812 34.528C23.8787 36.3699 24.0573 36.6107 24.357 36.6107C24.8058 36.6107 24.9566 36.315 25.3969 34.5714C25.6259 33.6646 25.8433 32.8902 25.8801 32.8506C25.9169 32.8108 26.41 33.133 26.976 33.5665C28.5788 34.794 28.6395 34.7572 29.1501 32.249C29.3514 31.2593 29.5494 30.4496 29.59 30.4496C29.6305 30.4496 29.9559 30.6497 30.3133 30.8943ZM37.6231 33.0866C37.6231 34.2551 37.6432 34.4467 37.7847 34.6197C38.0837 34.9854 38.3581 34.8907 39.8887 33.8936L41.3067 32.9699L42.7145 33.8936C44.2393 34.8941 44.5194 34.9906 44.8227 34.6197C44.9641 34.4467 44.9843 34.2551 44.9843 33.0866V31.7512H47.7009H50.4176V37.9123V44.0735H44.2175H38.0174V43.3439C38.0174 42.6608 38.0003 42.5931 37.7494 42.2809C37.4414 41.8976 36.8291 41.5569 36.4483 41.5569C36.2409 41.5569 33.2882 42.0951 32.387 42.2971L32.1898 42.3412V37.0462V31.7512H34.9064H37.6231V33.0866ZM43.144 38.6933C42.9202 38.915 42.9122 39.3967 43.129 39.591C43.2704 39.7177 43.5896 39.7346 45.8422 39.7346C48.3556 39.7346 48.398 39.7317 48.5738 39.5447C48.8127 39.2909 48.7993 38.9921 48.5374 38.7328L48.3223 38.5198H45.8207C43.4361 38.5198 43.3111 38.5278 43.144 38.6933ZM41.5066 41.1237C41.0956 41.2877 41.0126 41.7972 41.3436 42.1249L41.5586 42.3379H44.8431C46.7759 42.3379 48.2207 42.303 48.3535 42.2529C48.8352 42.0716 48.8668 41.4045 48.4051 41.168C48.1881 41.0569 47.6429 41.0372 44.9229 41.0418C43.1492 41.0448 41.6119 41.0817 41.5066 41.1237ZM19.4855 43.5745C20.9014 45.2739 21.2343 45.5423 21.9321 45.5468C22.0983 45.5478 23.1433 45.3709 24.2544 45.1536C25.3655 44.9363 28.5579 44.3109 31.3487 43.7639C36.068 42.8386 36.4371 42.7784 36.6286 42.9026C36.8714 43.0602 36.9073 43.4682 36.6967 43.6768C36.6209 43.7518 36.5361 43.8131 36.5082 43.8131C36.4803 43.8131 35.4282 44.0513 34.1702 44.3424C32.2375 44.7897 31.8525 44.9047 31.6859 45.0849C31.4288 45.3628 31.4361 45.643 31.7069 45.8949L31.9251 46.0979L36.3001 45.9464C39.5483 45.8339 40.7221 45.8199 40.858 45.8918C41.0763 46.0075 41.112 46.5102 40.9135 46.6733C40.8311 46.7411 39.3577 46.8806 36.7243 47.0699C32.439 47.3779 31.7372 47.4473 30.0985 47.7243C28.7577 47.9509 25.5588 48.7388 23.9084 49.2488C22.6778 49.6292 22.5297 49.6555 21.5862 49.6628C20.074 49.6745 20.2504 49.7729 16.5661 46.8606C15.2751 45.8402 14.2425 44.9817 14.2716 44.953C14.3362 44.8889 18.6317 42.6896 18.6974 42.687C18.7233 42.6859 19.0779 43.0853 19.4855 43.5745Z" stroke="#0055A5" mask="url(#path-2-outside-1_43_7667)"/>
</svg>
