<svg width="103" height="17" viewBox="0 0 103 17" fill="none" xmlns="http://www.w3.org/2000/svg">
<path d="M94.9993 7.00012L98.3492 10.3501L101.699 7.00012" stroke="#9CA6FF" stroke-linecap="round" stroke-linejoin="round"/>
<path d="M0.999269 7.00012L4.34924 10.3501L7.69922 7.00012" stroke="#9CA6FF" stroke-linecap="round" stroke-linejoin="round"/>
<path d="M15.3095 0.199999L18.8095 0.199999C19.6868 0.199999 20.4195 0.493999 21.0075 1.082C21.5955 1.67 21.8895 2.40267 21.8895 3.28C21.8895 4.15733 21.5955 4.89 21.0075 5.478C20.4195 6.066 19.6868 6.36 18.8095 6.36L16.2895 6.36L16.2895 10L15.3095 10L15.3095 0.199999ZM16.2895 5.436L18.8095 5.436C19.4161 5.436 19.9155 5.23533 20.3075 4.834C20.7088 4.43267 20.9095 3.91467 20.9095 3.28C20.9095 2.65467 20.7088 2.14133 20.3075 1.74C19.9155 1.32933 19.4161 1.124 18.8095 1.124L16.2895 1.124L16.2895 5.436ZM28.8867 4.372L28.8867 3L29.8107 3L29.8107 10L28.8867 10L28.8867 8.628C28.2427 9.65467 27.3001 10.168 26.0587 10.168C25.0601 10.168 24.2061 9.81333 23.4967 9.104C22.7967 8.39467 22.4467 7.52667 22.4467 6.5C22.4467 5.47333 22.7967 4.60533 23.4967 3.896C24.2061 3.18667 25.0601 2.832 26.0587 2.832C27.3001 2.832 28.2427 3.34533 28.8867 4.372ZM24.1687 8.474C24.7007 9.006 25.3541 9.272 26.1287 9.272C26.9034 9.272 27.5567 9.006 28.0887 8.474C28.6207 7.92333 28.8867 7.26533 28.8867 6.5C28.8867 5.72533 28.6207 5.072 28.0887 4.54C27.5567 3.99867 26.9034 3.728 26.1287 3.728C25.3541 3.728 24.7007 3.99867 24.1687 4.54C23.6367 5.072 23.3707 5.72533 23.3707 6.5C23.3707 7.26533 23.6367 7.92333 24.1687 8.474ZM35.3791 6.402C36.1911 6.71 36.5971 7.27 36.5971 8.082C36.5971 8.67 36.3684 9.16467 35.9111 9.566C35.4724 9.96733 34.8284 10.168 33.9791 10.168C32.5604 10.168 31.6364 9.608 31.2071 8.488L31.9911 8.026C32.2898 8.85667 32.9524 9.272 33.9791 9.272C34.5111 9.272 34.9264 9.16 35.2251 8.936C35.5238 8.70267 35.6731 8.39933 35.6731 8.026C35.6731 7.69 35.5518 7.424 35.3091 7.228C35.0664 7.02267 34.7398 6.92 34.3291 6.92L33.3071 6.92L33.3071 6.024L34.0491 6.024C34.4504 6.024 34.7631 5.926 34.9871 5.73C35.2204 5.52467 35.3371 5.24467 35.3371 4.89C35.3371 4.554 35.1971 4.27867 34.9171 4.064C34.6464 3.84 34.2871 3.728 33.8391 3.728C32.9711 3.728 32.3878 4.078 32.0891 4.778L31.3191 4.33C31.7858 3.33133 32.6258 2.832 33.8391 2.832C34.5858 2.832 35.1738 3.028 35.6031 3.42C36.0418 3.80267 36.2611 4.274 36.2611 4.834C36.2611 5.55267 35.9671 6.07533 35.3791 6.402ZM42.4535 6.402C43.2188 6.682 43.6015 7.228 43.6015 8.04C43.6015 8.61867 43.4055 9.09 43.0135 9.454C42.6308 9.818 42.0942 10 41.4035 10L38.0015 10L38.0015 3L41.1235 3C41.7955 3 42.3182 3.17267 42.6915 3.518C43.0742 3.86333 43.2655 4.316 43.2655 4.876C43.2655 5.576 42.9948 6.08467 42.4535 6.402ZM41.1235 3.896L38.9255 3.896L38.9255 6.024L41.1235 6.024C41.9355 6.024 42.3415 5.66 42.3415 4.932C42.3415 4.60533 42.2342 4.35333 42.0195 4.176C41.8142 3.98933 41.5155 3.896 41.1235 3.896ZM38.9255 9.104L41.4035 9.104C41.8142 9.104 42.1268 9.006 42.3415 8.81C42.5655 8.614 42.6775 8.33867 42.6775 7.984C42.6775 7.648 42.5655 7.38667 42.3415 7.2C42.1268 7.01333 41.8142 6.92 41.4035 6.92L38.9255 6.92L38.9255 9.104ZM48.2355 2.832C49.2808 2.832 50.1162 3.20067 50.7415 3.938C51.3855 4.666 51.7075 5.52933 51.7075 6.528C51.7075 6.57467 51.6982 6.71933 51.6795 6.962L45.5335 6.962C45.6268 7.662 45.9255 8.222 46.4295 8.642C46.9335 9.062 47.5635 9.272 48.3195 9.272C49.3835 9.272 50.1348 8.87533 50.5735 8.082L51.3855 8.558C51.0775 9.062 50.6528 9.45867 50.1115 9.748C49.5795 10.028 48.9775 10.168 48.3055 10.168C47.2042 10.168 46.3082 9.82267 45.6175 9.132C44.9268 8.44133 44.5815 7.564 44.5815 6.5C44.5815 5.44533 44.9222 4.57267 45.6035 3.882C46.2848 3.182 47.1622 2.832 48.2355 2.832ZM48.2355 3.728C47.5075 3.728 46.8962 3.94267 46.4015 4.372C45.9162 4.80133 45.6268 5.366 45.5335 6.066L50.7555 6.066C50.6528 5.31933 50.3682 4.74533 49.9015 4.344C49.4162 3.93333 48.8608 3.728 48.2355 3.728ZM56.9293 2.832C57.9279 2.832 58.7773 3.18667 59.4773 3.896C60.1866 4.60533 60.5413 5.47333 60.5413 6.5C60.5413 7.52667 60.1866 8.39467 59.4773 9.104C58.7773 9.81333 57.9279 10.168 56.9293 10.168C55.6879 10.168 54.7453 9.65467 54.1013 8.628L54.1013 12.8L53.1773 12.8L53.1773 3L54.1013 3L54.1013 4.372C54.7453 3.34533 55.6879 2.832 56.9293 2.832ZM54.8993 8.474C55.4313 9.006 56.0846 9.272 56.8593 9.272C57.6339 9.272 58.2873 9.006 58.8193 8.474C59.3513 7.92333 59.6173 7.26533 59.6173 6.5C59.6173 5.72533 59.3513 5.072 58.8193 4.54C58.2873 3.99867 57.6339 3.728 56.8593 3.728C56.0846 3.728 55.4313 3.99867 54.8993 4.54C54.3673 5.072 54.1013 5.72533 54.1013 6.5C54.1013 7.26533 54.3673 7.92333 54.8993 8.474ZM67.0337 6.052L67.0337 3L67.9577 3L67.9577 10L67.0337 10L67.0337 6.948L63.0017 6.948L63.0017 10L62.0777 10L62.0777 3L63.0017 3L63.0017 6.052L67.0337 6.052ZM72.6836 8.866L74.9516 3L75.9316 3L72.9356 10.644C72.6556 11.3533 72.2636 11.8993 71.7596 12.282C71.265 12.674 70.7143 12.8467 70.1076 12.8L70.1076 11.932C70.9476 12.0347 71.587 11.5493 72.0256 10.476L72.2076 10.042L69.0716 3L70.0516 3L72.6836 8.866ZM76.2084 3L82.0884 3L82.0884 3.896L79.6104 3.896L79.6104 10L78.6864 10L78.6864 3.896L76.2084 3.896L76.2084 3ZM84.1384 5.66L86.0564 5.66C86.7004 5.66 87.251 5.86533 87.7084 6.276C88.1657 6.67733 88.3944 7.19533 88.3944 7.83C88.3944 8.474 88.1657 8.99667 87.7084 9.398C87.2697 9.79933 86.719 10 86.0564 10L83.2144 10L83.2144 3L84.1384 3L84.1384 5.66ZM84.1384 9.104L86.0564 9.104C86.4577 9.104 86.7937 8.98733 87.0644 8.754C87.335 8.51133 87.4704 8.20333 87.4704 7.83C87.4704 7.45667 87.335 7.15333 87.0644 6.92C86.7937 6.67733 86.4577 6.556 86.0564 6.556L84.1384 6.556L84.1384 9.104Z" fill="#9CA6FF"/>
<line x1="14" y1="16.5" x2="90" y2="16.5" stroke="#9CA6FF" stroke-dasharray="5 5"/>
</svg>
