<svg width="106" height="18" viewBox="0 0 106 18" fill="none" xmlns="http://www.w3.org/2000/svg">
<path d="M104.7 9.84998L101.35 6.5L98 9.84998" stroke="#9CA6FF" stroke-linecap="round" stroke-linejoin="round"/>
<path d="M7.69995 9.84998L4.34998 6.5L1 9.84998" stroke="#9CA6FF" stroke-linecap="round" stroke-linejoin="round"/>
<path d="M23.9612 11.692C22.2546 11.692 20.8519 11.132 19.7532 10.012C18.6439 8.88133 18.0892 7.51067 18.0892 5.9C18.0892 4.28933 18.6439 2.91867 19.7532 1.788C20.8519 0.668 22.2546 0.108 23.9612 0.108C24.9852 0.108 25.9292 0.358666 26.7932 0.86C27.6572 1.35067 28.3292 2.01733 28.8092 2.86L27.8172 3.436C27.4652 2.75333 26.9426 2.20933 26.2492 1.804C25.5559 1.39867 24.7932 1.196 23.9612 1.196C22.5532 1.196 21.4119 1.64933 20.5372 2.556C19.6519 3.47333 19.2092 4.588 19.2092 5.9C19.2092 7.212 19.6519 8.32667 20.5372 9.244C21.4119 10.1507 22.5532 10.604 23.9612 10.604C24.7932 10.604 25.5559 10.4013 26.2492 9.996C26.9426 9.59067 27.4652 9.04667 27.8172 8.364L28.8092 8.924C28.3506 9.76667 27.6839 10.4387 26.8092 10.94C25.9346 11.4413 24.9852 11.692 23.9612 11.692ZM35.5791 7.388C36.4538 7.708 36.8911 8.332 36.8911 9.26C36.8911 9.92133 36.6671 10.46 36.2191 10.876C35.7818 11.292 35.1684 11.5 34.3791 11.5L30.4911 11.5L30.4911 3.5L34.0591 3.5C34.8271 3.5 35.4244 3.69733 35.8511 4.092C36.2884 4.48667 36.5071 5.004 36.5071 5.644C36.5071 6.444 36.1978 7.02533 35.5791 7.388ZM34.0591 4.524L31.5471 4.524L31.5471 6.956L34.0591 6.956C34.9871 6.956 35.4511 6.54 35.4511 5.708C35.4511 5.33467 35.3284 5.04667 35.0831 4.844C34.8484 4.63067 34.5071 4.524 34.0591 4.524ZM31.5471 10.476L34.3791 10.476C34.8484 10.476 35.2058 10.364 35.4511 10.14C35.7071 9.916 35.8351 9.60133 35.8351 9.196C35.8351 8.812 35.7071 8.51333 35.4511 8.3C35.2058 8.08667 34.8484 7.98 34.3791 7.98L31.5471 7.98L31.5471 10.476ZM42.1871 3.308C43.3818 3.308 44.3364 3.72933 45.0511 4.572C45.7871 5.404 46.1551 6.39067 46.1551 7.532C46.1551 7.58533 46.1444 7.75067 46.1231 8.028L39.0991 8.028C39.2058 8.828 39.5471 9.468 40.1231 9.948C40.6991 10.428 41.4191 10.668 42.2831 10.668C43.4991 10.668 44.3578 10.2147 44.8591 9.308L45.7871 9.852C45.4351 10.428 44.9498 10.8813 44.3311 11.212C43.7231 11.532 43.0351 11.692 42.2671 11.692C41.0084 11.692 39.9844 11.2973 39.1951 10.508C38.4058 9.71867 38.0111 8.716 38.0111 7.5C38.0111 6.29467 38.4004 5.29733 39.1791 4.508C39.9578 3.708 40.9604 3.308 42.1871 3.308ZM42.1871 4.332C41.3551 4.332 40.6564 4.57733 40.0911 5.068C39.5364 5.55867 39.2058 6.204 39.0991 7.004L45.0671 7.004C44.9498 6.15067 44.6244 5.49467 44.0911 5.036C43.5364 4.56667 42.9018 4.332 42.1871 4.332ZM52.1228 3.308C53.2642 3.308 54.2348 3.71333 55.0348 4.524C55.8455 5.33467 56.2508 6.32667 56.2508 7.5C56.2508 8.67333 55.8455 9.66533 55.0348 10.476C54.2348 11.2867 53.2642 11.692 52.1228 11.692C50.7042 11.692 49.6268 11.1053 48.8908 9.932L48.8908 14.7L47.8348 14.7L47.8348 3.5L48.8908 3.5L48.8908 5.068C49.6268 3.89467 50.7042 3.308 52.1228 3.308ZM49.8028 9.756C50.4108 10.364 51.1575 10.668 52.0428 10.668C52.9282 10.668 53.6748 10.364 54.2828 9.756C54.8908 9.12667 55.1948 8.37467 55.1948 7.5C55.1948 6.61467 54.8908 5.868 54.2828 5.26C53.6748 4.64133 52.9282 4.332 52.0428 4.332C51.1575 4.332 50.4108 4.64133 49.8028 5.26C49.1948 5.868 48.8908 6.61467 48.8908 7.5C48.8908 8.37467 49.1948 9.12667 49.8028 9.756ZM63.6707 6.988L63.6707 3.5L64.7267 3.5L64.7267 11.5L63.6707 11.5L63.6707 8.012L59.0627 8.012L59.0627 11.5L58.0067 11.5L58.0067 3.5L59.0627 3.5L59.0627 6.988L63.6707 6.988ZM70.1278 10.204L72.7198 3.5L73.8398 3.5L70.4158 12.236C70.0958 13.0467 69.6478 13.6707 69.0718 14.108C68.5065 14.556 67.8772 14.7533 67.1838 14.7L67.1838 13.708C68.1438 13.8253 68.8745 13.2707 69.3758 12.044L69.5838 11.548L65.9998 3.5L67.1198 3.5L70.1278 10.204ZM74.1561 3.5L80.8761 3.5L80.8761 4.524L78.0441 4.524L78.0441 11.5L76.9881 11.5L76.9881 4.524L74.1561 4.524L74.1561 3.5ZM83.219 6.54L85.411 6.54C86.147 6.54 86.7763 6.77467 87.299 7.244C87.8216 7.70267 88.083 8.29467 88.083 9.02C88.083 9.756 87.8216 10.3533 87.299 10.812C86.7976 11.2707 86.1683 11.5 85.411 11.5L82.163 11.5L82.163 3.5L83.219 3.5L83.219 6.54ZM83.219 10.476L85.411 10.476C85.8696 10.476 86.2536 10.3427 86.563 10.076C86.8723 9.79867 87.027 9.44667 87.027 9.02C87.027 8.59333 86.8723 8.24667 86.563 7.98C86.2536 7.70267 85.8696 7.564 85.411 7.564L83.219 7.564L83.219 10.476Z" fill="#9CA6FF"/>
<line x1="19" y1="17.5" x2="89" y2="17.5" stroke="#9CA6FF" stroke-dasharray="5 5"/>
</svg>
