 <svg
          xmlns="http://www.w3.org/2000/svg"
          width="141"
          height="33"
          viewBox="0 0 141 33"
          fill="none"
        >
          <rect width="141" height="32.712" rx="10" fill="#0075FF" />
          <path
            d="M45.0148 18.9663C45.0148 20.6121 43.4826 21.8038 41.326 21.8038H36.2753V11.5889H41.1558C43.2556 11.5889 44.7311 12.7239 44.7311 14.3129C44.7311 15.3911 44.1636 16.0721 43.3123 16.4694C44.2203 16.8098 45.0148 17.7178 45.0148 18.9663ZM38.4886 13.4616V15.6748H41.0991C41.8936 15.6748 42.4043 15.2209 42.4043 14.5966C42.4043 13.9724 41.8368 13.4616 41.0991 13.4616H38.4886ZM41.326 19.9311C42.1773 19.9311 42.8016 19.4203 42.8016 18.6826C42.8016 17.9449 42.2341 17.4341 41.326 17.4341H38.4886V19.9311H41.326Z"
            fill="white"
          />
          <path
            d="M53.3558 21.7471L49.8375 17.7179H49.2699V21.7471H46.9999V11.5889H49.2699V15.5046H49.8375L53.2424 11.5889H55.9098L51.6534 16.4694L56.3068 21.7471H53.3558Z"
            fill="white"
          />
          <path
            d="M56.3066 16.6967C56.3066 13.6322 58.5769 11.4189 61.7546 11.4189C64.9328 11.4189 67.2027 13.6322 67.2027 16.6967C67.2027 19.7612 64.9328 21.9744 61.7546 21.9744C58.5769 21.9744 56.3066 19.7612 56.3066 16.6967ZM64.8194 16.6967C64.8194 14.7672 63.5707 13.462 61.7546 13.462C59.9386 13.462 58.6903 14.7672 58.6903 16.6967C58.6903 18.6262 59.9386 19.9314 61.7546 19.9314C63.5707 19.9314 64.8194 18.6262 64.8194 16.6967Z"
            fill="white"
          />
          <path
            d="M75.8858 11.5889H78.1562V21.7471H75.8858V17.6611H71.346V21.7471H69.0761V11.5889H71.346V15.6181H75.8858V11.5889Z"
            fill="white"
          />
          <path
            d="M83.036 21.7471V13.6318H79.5173V11.5889H88.7677V13.6318H85.249V21.7471H83.036Z"
            fill="white"
          />
          <path
            d="M98.5289 16.0724V21.7474H96.8831L96.4292 20.1584C95.9184 21.0097 94.8404 21.9744 93.1946 21.9744C91.1515 21.9744 89.676 20.6124 89.676 18.7397C89.676 16.8669 91.1515 15.5617 94.1593 15.5617H96.3723C96.259 14.2564 95.5779 13.3485 94.3296 13.3485C93.308 13.3485 92.6269 13.9159 92.2864 14.5402L90.2437 14.1997C90.7545 12.4405 92.5136 11.4189 94.443 11.4189C96.94 11.4189 98.5289 13.1214 98.5289 16.0724ZM96.3159 17.3209H94.2162C92.5136 17.3209 91.9459 17.8884 91.9459 18.6262C91.9459 19.4774 92.6269 20.0449 93.7619 20.0449C95.2374 20.0449 96.3159 18.9667 96.3159 17.3209Z"
            fill="white"
          />
          <path
            d="M107.268 21.7471L103.749 17.7179H103.182V21.7471H100.912V11.5889H103.182V15.5046H103.749L107.154 11.5889H109.822L105.566 16.4694L110.219 21.7471H107.268Z"
            fill="white"
          />
          <path
            d="M114.305 21.7471V13.6318H110.787V11.5889H120.037V13.6318H116.519V21.7471H114.305Z"
            fill="white"
          />
          <path
            d="M131.387 17.3209H123.215C123.442 18.9099 124.577 19.9314 126.28 19.9314C127.471 19.9314 128.38 19.4207 128.89 18.6829L130.99 19.0234C130.252 20.9529 128.266 21.9744 126.109 21.9744C123.045 21.9744 120.832 19.7612 120.832 16.6967C120.832 13.6322 123.045 11.4189 126.109 11.4189C129.174 11.4189 131.387 13.6322 131.387 16.5832C131.444 16.8669 131.387 17.094 131.387 17.3209ZM123.386 15.5617H129.004C128.606 14.3132 127.585 13.4052 126.166 13.4052C124.804 13.3485 123.726 14.2564 123.386 15.5617Z"
            fill="white"
          />
          <path
            d="M7.33197 15.9223C7.33197 11.017 7.33197 8.56435 8.85584 7.04047C10.3797 5.5166 12.8323 5.5166 17.7376 5.5166H18.6048C23.5101 5.5166 25.9627 5.5166 27.4866 7.04047C29.0104 8.56435 29.0104 11.017 29.0104 15.9223V16.7894C29.0104 21.6947 29.0104 24.1473 27.4866 25.6712C25.9627 27.195 23.5101 27.195 18.6048 27.195H17.7376C12.8323 27.195 10.3797 27.195 8.85584 25.6712C7.33197 24.1473 7.33197 21.6947 7.33197 16.7894V15.9223Z"
            fill="white"
          />
          <path
            d="M18.8667 21.135C13.9258 21.135 11.1077 17.7477 10.9902 12.1113H13.4652C13.5465 16.2483 15.371 18.0006 16.8163 18.3619V12.1113H19.1468V15.6792C20.574 15.5257 22.0732 13.8998 22.579 12.1113H24.9095C24.5211 14.3153 22.8952 15.9412 21.739 16.6096C22.8952 17.1516 24.747 18.5697 25.4516 21.135H22.8862C22.3352 19.4188 20.9624 18.091 19.1468 17.9103V21.135H18.8667Z"
            fill="#0075FF"
          />
        </svg>